HIERARCHY
ROOT Hips
{
	OFFSET 0.00000 0.00000 0.00000
	CHANNELS 6 Xposition Yposition Zposition Zrotation Yrotation Xrotation 
	JOINT RightUpLegDummy
	{
		OFFSET 0 0 0
		CHANNELS 3 Zrotation Yrotation Xrotation
		JOINT RightUpLeg
		{
			OFFSET -3.52197 -3.41223 0.04002
			CHANNELS 3 Zrotation Yrotation Xrotation
			JOINT RightLeg
			{
				OFFSET 0.00006 -17.42390 1.60435
				CHANNELS 3 Zrotation Yrotation Xrotation
				JOINT RightFoot
				{
					OFFSET 0.06153 -16.50078 -1.63901
					CHANNELS 3 Zrotation Yrotation Xrotation
					JOINT RightToes
					{
						OFFSET 0.00298 -1.73825 3.34613
						CHANNELS 3 Zrotation Yrotation Xrotation
						End Site
						{
							OFFSET 0.00480 -0.05416 3.85043
						}
					}
				}
			}
		}
	}
	JOINT SpineDummy
	{
		OFFSET 0 0 0
		CHANNELS 3 Zrotation Yrotation Xrotation
		JOINT Spine
		{
			OFFSET 0.00000 4.68130 0.00000
			CHANNELS 3 Zrotation Yrotation Xrotation
			JOINT Spine1
			{
				OFFSET -0.00000 10.10138 0.05002
				CHANNELS 3 Zrotation Yrotation Xrotation
				JOINT HEadDummy
				{
					OFFSET 0 0 0
					CHANNELS 3 Zrotation Yrotation Xrotation
					JOINT Head
					{
						OFFSET -0.00000 3.43865 0.00438
						CHANNELS 3 Zrotation Yrotation Xrotation
						End Site
						{
							OFFSET -0.11417 5.02924 0.98962
						}
					}
				}
				JOINT LeftShoulder1Dummy
				{
					OFFSET 0 0 0
					CHANNELS 3 Zrotation Yrotation Xrotation
					JOINT LeftShoulder1
					{
						OFFSET 3.53937 -0.14262 -0.08662
						CHANNELS 3 Zrotation Yrotation Xrotation
						JOINT LeftArm
						{
							OFFSET 4.04833 -0.00133 0.12681
							CHANNELS 3 Zrotation Yrotation Xrotation
							JOINT LeftForeArm
							{
								OFFSET 10.33880 -0.01036 -0.55515
								CHANNELS 3 Zrotation Yrotation Xrotation
								JOINT LeftHand
								{
									OFFSET 8.69677 0.07543 0.40060
									CHANNELS 3 Zrotation Yrotation Xrotation
									End Site
									{
										OFFSET 5.28377 -0.21905 0.59205
									}
								}
							}
						}
					}
				}
				JOINT RightShoulderDummy
				{
					OFFSET 0 0 0
					CHANNELS 3 Zrotation Yrotation Xrotation
					JOINT RightShoulder
					{
						OFFSET -3.53937 -0.14262 -0.08660
						CHANNELS 3 Zrotation Yrotation Xrotation
						JOINT RightArm
						{
							OFFSET -4.04833 -0.00133 0.12683
							CHANNELS 3 Zrotation Yrotation Xrotation
							JOINT RightForeArm
							{
								OFFSET -10.37987 -0.01039 -0.55511
								CHANNELS 3 Zrotation Yrotation Xrotation
								JOINT RightHand
								{
									OFFSET -8.67398 0.07538 0.40058
									CHANNELS 3 Zrotation Yrotation Xrotation
									End Site
									{
										OFFSET -5.24810 -0.21916 0.59204
									}
								}
							}
						}
					}
				}
			}
		}
	}
	JOINT LeftUpLegDummy
	{
		OFFSET 0 0 0
		CHANNELS 3 Zrotation Yrotation Xrotation
		JOINT LeftUpLeg
		{
			OFFSET 3.52197 -3.41223 0.04002
			CHANNELS 3 Zrotation Yrotation Xrotation
			JOINT LeftLeg
			{
				OFFSET -0.00012 -17.42399 1.60337
				CHANNELS 3 Zrotation Yrotation Xrotation
				JOINT LeftFoot
				{
					OFFSET -0.09972 -16.50070 -1.63802
					CHANNELS 3 Zrotation Yrotation Xrotation
					JOINT LeftToes
					{
						OFFSET -0.01575 -1.73823 3.34611
						CHANNELS 3 Zrotation Yrotation Xrotation
						End Site
						{
							OFFSET 0.03150 -0.01868 3.85031
						}
					}
				}
			}
		}
	}
}
MOTION
Frames: 9
Frame Time: 0.033333
0.0827 40.1569 -3.8083 -1.6428 -8.7423 -0.4784 0.0000 0.0000 0.0000 -1.7135 -2.9264 0.7428 -0.8633 0.3828 1.9960 1.5578 -0.1167 -1.9487 0.0000 -0.0000 -0.0000 0.0000 0.0000 0.0000 2.2380 -0.1158 -0.2196 -0.3155 -0.1846 0.7530 -0.0000 0.0000 -0.0000 -5.3088 3.2651 2.7812 -0.0000 0.0000 -0.0000 -3.7846 1.0091 0.2810 3.3611 -14.1094 -31.6952 -8.7970 5.6660 20.9698 20.8165 0.6045 -0.8626 -0.0000 0.0000 -0.0000 5.7179 -0.9344 0.3367 -6.0921 6.3282 -33.6855 5.5949 -3.4189 16.9643 -9.5114 1.2475 -0.5177 0.0000 0.0000 0.0000 4.7317 3.4985 2.4652 3.6172 16.8506 4.9356 -1.4690 0.1200 -4.0553 0.0000 0.0000 -0.0000
0.0800 40.1569 -3.8036 -1.6375 -8.7820 -0.4784 0.0000 0.0000 0.0000 -1.7135 -2.9264 0.7428 -0.8587 0.4165 1.9961 1.5598 -0.1168 -1.9577 0.0000 -0.0000 -0.0000 0.0000 0.0000 0.0000 2.2165 -0.1004 -0.2454 -0.3006 -0.1709 0.7715 -0.0000 0.0000 -0.0000 -5.2672 3.2145 2.7780 -0.0000 0.0000 -0.0000 -3.8013 1.0367 0.2810 3.4310 -14.4172 -32.3180 -8.4605 5.6618 21.7768 20.7902 0.3915 -0.8986 -0.0000 0.0000 -0.0000 5.7109 -0.9444 0.3367 -6.0812 6.4033 -33.7589 5.5552 -3.4691 17.3085 -9.1117 1.8125 -0.5317 0.0000 0.0000 0.0000 4.7167 3.4875 2.4679 3.6438 16.8983 4.9484 -1.4705 0.1201 -4.0553 0.0000 0.0000 -0.0000
0.0758 40.1569 -3.7956 -1.6295 -8.8304 -0.4784 0.0000 0.0000 0.0000 -1.7135 -2.9264 0.7428 -0.8547 0.4612 2.0003 1.5732 -0.1177 -1.9726 0.0000 -0.0000 -0.0000 0.0000 0.0000 0.0000 2.1687 -0.0901 -0.2728 -0.2563 -0.1667 0.7973 -0.0000 0.0000 -0.0000 -5.2185 3.1913 2.7420 -0.0000 0.0000 -0.0000 -3.8603 1.0742 0.2810 3.5242 -14.7551 -33.0830 -8.0438 5.6568 22.6779 20.8311 0.1854 -0.9364 -0.0000 0.0000 -0.0000 5.6748 -0.9509 0.3367 -6.0478 6.5427 -33.8586 5.5075 -3.5620 17.7369 -8.5977 2.5161 -0.5500 0.0000 0.0000 0.0000 4.6967 3.4695 2.4793 3.6836 16.9607 4.9700 -1.4780 0.1206 -4.0553 0.0000 0.0000 -0.0000
0.0730 40.1569 -3.7880 -1.6232 -8.8696 -0.4784 0.0000 0.0000 0.0000 -1.7183 -2.9264 0.7411 -0.8500 0.5065 2.0212 1.5822 -0.1182 -1.9884 0.0000 -0.0000 -0.0000 0.0000 0.0000 0.0000 2.1427 -0.0831 -0.2858 -0.2402 -0.1613 0.8129 -0.0000 0.0000 -0.0000 -5.2053 3.2041 2.6976 -0.0000 0.0000 -0.0000 -3.9045 1.1009 0.2810 3.5367 -14.8461 -33.2957 -7.9328 5.6563 22.8273 20.9720 0.1660 -0.9462 -0.0000 0.0000 -0.0000 5.6240 -0.9494 0.3367 -5.9747 6.6567 -33.8517 5.5250 -3.6084 17.7028 -8.5178 2.5629 -0.5523 0.0000 0.0000 0.0000 4.6816 3.4536 2.5036 3.7138 17.0204 4.9767 -1.4866 0.1212 -4.0553 0.0000 0.0000 -0.0000
0.0718 40.1569 -3.7816 -1.6174 -8.9043 -0.4753 0.0000 0.0000 0.0000 -1.7262 -2.9264 0.7271 -0.8419 0.5507 2.0613 1.5712 -0.1174 -2.0047 0.0000 -0.0000 -0.0000 0.0000 0.0000 0.0000 2.1455 -0.0653 -0.2975 -0.2605 -0.1393 0.8125 -0.0000 0.0000 -0.0000 -5.2360 3.2502 2.6771 -0.0000 0.0000 -0.0000 -3.9059 1.1227 0.2810 3.4857 -14.8204 -33.0940 -8.0554 5.6582 22.5240 21.0794 0.2213 -0.9414 -0.0000 0.0000 -0.0000 5.5717 -0.9556 0.3367 -5.8627 6.7016 -33.7317 5.6005 -3.5698 17.2732 -8.7843 2.0846 -0.5420 0.0000 0.0000 0.0000 4.6670 3.4407 2.5217 3.7350 17.0795 4.9705 -1.4862 0.1211 -4.0553 0.0000 0.0000 -0.0000
0.0707 40.1569 -3.7757 -1.6102 -8.9337 -0.4599 0.0000 0.0000 0.0000 -1.7337 -2.9264 0.6921 -0.8375 0.5806 2.1022 1.5611 -0.1167 -2.0217 0.0000 -0.0000 -0.0000 0.0000 0.0000 0.0000 2.1364 -0.0384 -0.3212 -0.2565 -0.1125 0.8036 -0.0000 0.0000 -0.0000 -5.2967 3.3668 2.6609 -0.0000 0.0000 -0.0000 -3.9071 1.1441 0.2810 3.4482 -14.8488 -32.9325 -8.1520 5.6588 22.3844 21.0484 0.2495 -0.9350 -0.0000 0.0000 -0.0000 5.5311 -0.9694 0.3367 -5.7660 6.6889 -33.6362 5.6515 -3.4987 16.9600 -8.9304 1.7684 -0.5361 0.0000 0.0000 0.0000 4.6568 3.4386 2.5121 3.7445 17.1134 4.9821 -1.4819 0.1209 -4.0619 0.0000 0.0000 -0.0000
0.0690 40.1569 -3.7694 -1.6029 -8.9576 -0.4351 0.0000 0.0000 0.0000 -1.7364 -2.9264 0.6573 -0.8403 0.5947 2.1295 1.5733 -0.1175 -2.0405 0.0000 -0.0000 -0.0000 0.0000 0.0000 0.0000 2.1050 -0.0153 -0.3496 -0.2147 -0.0957 0.7929 -0.0000 0.0000 -0.0000 -5.3510 3.5132 2.6163 -0.0000 0.0000 -0.0000 -3.9369 1.1535 0.2810 3.4436 -14.8961 -32.9372 -8.1469 5.6578 22.4902 20.9700 0.2618 -0.9293 -0.0000 0.0000 -0.0000 5.5206 -0.9698 0.3367 -5.7265 6.6400 -33.6532 5.6362 -3.4377 16.9564 -8.8158 1.8383 -0.5366 0.0000 0.0000 0.0000 4.6614 3.4576 2.4794 3.7329 17.1054 5.0263 -1.4781 0.1206 -4.0871 0.0000 0.0000 -0.0000
0.0671 40.1569 -3.7632 -1.5953 -8.9782 -0.4129 0.0000 0.0000 0.0000 -1.7381 -2.9264 0.6282 -0.8464 0.6073 2.1520 1.5867 -0.1182 -2.0631 0.0000 -0.0000 -0.0000 0.0000 0.0000 0.0000 2.0846 -0.0033 -0.3607 -0.1921 -0.0868 0.7627 -0.0000 0.0000 -0.0000 -5.3653 3.5850 2.5666 -0.0000 0.0000 -0.0000 -3.9716 1.1492 0.2810 3.4502 -14.9113 -33.0180 -8.0941 5.6570 22.6105 20.9758 0.2818 -0.9261 -0.0000 0.0000 -0.0000 5.5324 -0.9606 0.3367 -5.7051 6.5750 -33.7071 5.6045 -3.3550 16.9700 -8.7276 1.9305 -0.5379 0.0000 0.0000 0.0000 4.6724 3.4841 2.4465 3.7105 17.0898 5.0737 -1.4766 0.1205 -4.1123 0.0000 0.0000 -0.0000
0.0659 40.1569 -3.7573 -1.5845 -8.9886 -0.3950 0.0000 0.0000 0.0000 -1.7464 -2.9264 0.5999 -0.8512 0.6186 2.1824 1.5777 -0.1176 -2.0874 0.0000 -0.0000 -0.0000 0.0000 0.0000 0.0000 2.0829 -0.0007 -0.3465 -0.2046 -0.0814 0.6946 -0.0000 0.0000 -0.0000 -5.3553 3.5898 2.5540 -0.0000 0.0000 -0.0000 -3.9795 1.1422 0.2810 3.4521 -14.9894 -33.2010 -7.9911 5.6568 22.7263 21.0330 0.3503 -0.9165 -0.0000 0.0000 -0.0000 5.5472 -0.9721 0.3367 -5.6728 6.5262 -33.7076 5.6049 -3.2552 16.8534 -8.7999 1.8818 -0.5343 0.0000 0.0000 0.0000 4.6665 3.4888 2.4299 3.7036 17.1051 5.0846 -1.4570 0.1193 -4.1177 0.0000 0.0000 -0.0000
